<svg width="132" height="24" viewBox="0 0 132 24" fill="none" xmlns="http://www.w3.org/2000/svg">
<path d="M1.29706 6.04H3.10506V11.8H3.77706L6.09706 6.04H7.90506L5.34506 12.2L8.22506 19H6.41706L3.79306 12.68H3.10506V19H1.29706V6.04ZM11.4701 6.04H13.2141L15.9821 19H14.2701L13.6781 15.736H11.0381L10.4141 19H8.71806L11.4701 6.04ZM13.4381 14.44L12.3501 8.6L11.2781 14.44H13.4381ZM18.2992 7.384H16.1072V6.04H22.2352V7.384H20.1072V19H18.2992V7.384ZM25.5326 6.04H27.2766L30.0446 19H28.3326L27.7406 15.736H25.1006L24.4766 19H22.7806L25.5326 6.04ZM27.5006 14.44L26.4126 8.6L25.3406 14.44H27.5006ZM30.3836 17.656C30.8422 17.6667 31.1996 17.5813 31.4556 17.4C31.7116 17.2187 31.9249 16.792 32.0956 16.12C32.2662 15.448 32.3996 14.3867 32.4956 12.936L32.9276 6.04H38.6236V19H36.8156V7.384H34.4796L34.1756 12.936C34.0902 14.3867 33.9462 15.5387 33.7436 16.392C33.5409 17.2453 33.2102 17.896 32.7516 18.344C32.2929 18.792 31.6422 19.016 30.7996 19.016C30.6182 19.016 30.4796 19.0107 30.3836 19V17.656ZM43.9684 19.144C42.6991 19.144 41.7871 18.7867 41.2324 18.072C40.6884 17.3467 40.4164 16.3013 40.4164 14.936V10.024C40.4164 8.68 40.6938 7.66133 41.2484 6.968C41.8031 6.27467 42.7098 5.928 43.9684 5.928C45.2271 5.928 46.1284 6.28 46.6724 6.984C47.2271 7.67733 47.5044 8.69067 47.5044 10.024V14.952C47.5044 16.296 47.2271 17.3307 46.6724 18.056C46.1178 18.7813 45.2164 19.144 43.9684 19.144ZM43.9684 17.72C44.6404 17.72 45.0938 17.5227 45.3284 17.128C45.5631 16.7333 45.6804 16.136 45.6804 15.336V9.656C45.6804 8.86667 45.5631 8.28533 45.3284 7.912C45.0938 7.528 44.6404 7.336 43.9684 7.336C43.2858 7.336 42.8271 7.528 42.5924 7.912C42.3578 8.28533 42.2404 8.86667 42.2404 9.656V15.336C42.2404 16.136 42.3578 16.7333 42.5924 17.128C42.8271 17.5227 43.2858 17.72 43.9684 17.72ZM49.2814 6.04H54.2094V7.384H51.0894V19H49.2814V6.04ZM59.1096 6.04H62.3256C63.4456 6.04 64.2562 6.344 64.7576 6.952C65.2696 7.56 65.5256 8.45067 65.5256 9.624C65.5256 10.68 65.2536 11.5013 64.7096 12.088C64.1656 12.6747 63.3762 12.968 62.3416 12.968H60.9176V19H59.1096V6.04ZM61.7496 11.672C62.2829 11.672 62.6936 11.6133 62.9816 11.496C63.2802 11.3787 63.4936 11.176 63.6216 10.888C63.7496 10.6 63.8136 10.184 63.8136 9.64C63.8136 8.97867 63.7656 8.49333 63.6696 8.184C63.5736 7.87467 63.3816 7.656 63.0936 7.528C62.8162 7.4 62.3736 7.336 61.7656 7.336H60.9176V11.672H61.7496ZM66.7971 6.04H69.4051C70.7171 6.04 71.6771 6.312 72.2851 6.856C72.9037 7.38933 73.2131 8.264 73.2131 9.48C73.2131 11.144 72.6797 12.152 71.6131 12.504L73.4531 19H71.7091L70.0131 12.92H68.6051V19H66.7971V6.04ZM69.2931 11.624C70.0717 11.624 70.6264 11.4693 70.9571 11.16C71.2984 10.8507 71.4691 10.2907 71.4691 9.48C71.4691 8.94667 71.4104 8.53067 71.2931 8.232C71.1757 7.92267 70.9677 7.69867 70.6691 7.56C70.3704 7.41067 69.9491 7.336 69.4051 7.336H68.6051V11.624H69.2931ZM78.4059 19.144C77.1366 19.144 76.2246 18.7867 75.6699 18.072C75.1259 17.3467 74.8539 16.3013 74.8539 14.936V10.024C74.8539 8.68 75.1313 7.66133 75.6859 6.968C76.2406 6.27467 77.1473 5.928 78.4059 5.928C79.6646 5.928 80.5659 6.28 81.1099 6.984C81.6646 7.67733 81.9419 8.69067 81.9419 10.024V14.952C81.9419 16.296 81.6646 17.3307 81.1099 18.056C80.5553 18.7813 79.6539 19.144 78.4059 19.144ZM78.4059 17.72C79.0779 17.72 79.5313 17.5227 79.7659 17.128C80.0006 16.7333 80.1179 16.136 80.1179 15.336V9.656C80.1179 8.86667 80.0006 8.28533 79.7659 7.912C79.5313 7.528 79.0779 7.336 78.4059 7.336C77.7233 7.336 77.2646 7.528 77.0299 7.912C76.7953 8.28533 76.6779 8.86667 76.6779 9.656V15.336C76.6779 16.136 76.7953 16.7333 77.0299 17.128C77.2646 17.5227 77.7233 17.72 78.4059 17.72Z" fill="black"/>
<line x1="100" y1="12" x2="118" y2="12" stroke="black" stroke-width="2"/>
<path d="M124 12L117.25 17.1962V6.80385L124 12Z" fill="black"/>
</svg>
