<svg width="134" height="24" viewBox="0 0 134 24" fill="none" xmlns="http://www.w3.org/2000/svg">
<path d="M1.37519 6.04H3.18319V11.8H3.85519L6.17519 6.04H7.98319L5.42319 12.2L8.30319 19H6.49519L3.87119 12.68H3.18319V19H1.37519V6.04ZM11.5482 6.04H13.2922L16.0602 19H14.3482L13.7562 15.736H11.1162L10.4922 19H8.79619L11.5482 6.04ZM13.5162 14.44L12.4282 8.6L11.3562 14.44H13.5162ZM18.3773 7.384H16.1853V6.04H22.3133V7.384H20.1853V19H18.3773V7.384ZM25.6107 6.04H27.3547L30.1227 19H28.4107L27.8187 15.736H25.1787L24.5547 19H22.8587L25.6107 6.04ZM27.5787 14.44L26.4907 8.6L25.4187 14.44H27.5787ZM30.4617 17.656C30.9204 17.6667 31.2777 17.5813 31.5337 17.4C31.7897 17.2187 32.003 16.792 32.1737 16.12C32.3444 15.448 32.4777 14.3867 32.5737 12.936L33.0057 6.04H38.7017V19H36.8937V7.384H34.5577L34.2537 12.936C34.1684 14.3867 34.0244 15.5387 33.8217 16.392C33.619 17.2453 33.2884 17.896 32.8297 18.344C32.371 18.792 31.7204 19.016 30.8777 19.016C30.6964 19.016 30.5577 19.0107 30.4617 19V17.656ZM44.0466 19.144C42.7772 19.144 41.8652 18.7867 41.3106 18.072C40.7666 17.3467 40.4946 16.3013 40.4946 14.936V10.024C40.4946 8.68 40.7719 7.66133 41.3266 6.968C41.8812 6.27467 42.7879 5.928 44.0466 5.928C45.3052 5.928 46.2066 6.28 46.7506 6.984C47.3052 7.67733 47.5826 8.69067 47.5826 10.024V14.952C47.5826 16.296 47.3052 17.3307 46.7506 18.056C46.1959 18.7813 45.2946 19.144 44.0466 19.144ZM44.0466 17.72C44.7186 17.72 45.1719 17.5227 45.4066 17.128C45.6412 16.7333 45.7586 16.136 45.7586 15.336V9.656C45.7586 8.86667 45.6412 8.28533 45.4066 7.912C45.1719 7.528 44.7186 7.336 44.0466 7.336C43.3639 7.336 42.9052 7.528 42.6706 7.912C42.4359 8.28533 42.3186 8.86667 42.3186 9.656V15.336C42.3186 16.136 42.4359 16.7333 42.6706 17.128C42.9052 17.5227 43.3639 17.72 44.0466 17.72ZM49.3596 6.04H54.2876V7.384H51.1676V19H49.3596V6.04ZM62.2437 19.144C61.1557 19.144 60.3237 18.808 59.7477 18.136C59.1824 17.464 58.8677 16.5413 58.8037 15.368L60.4037 14.936C60.457 15.768 60.617 16.44 60.8837 16.952C61.161 17.464 61.6144 17.72 62.2437 17.72C62.713 17.72 63.065 17.592 63.2997 17.336C63.545 17.0693 63.6677 16.6907 63.6677 16.2C63.6677 15.6667 63.5557 15.224 63.3317 14.872C63.1077 14.52 62.7504 14.1307 62.2597 13.704L60.0837 11.784C59.6464 11.4 59.3264 10.9893 59.1237 10.552C58.9317 10.104 58.8357 9.56 58.8357 8.92C58.8357 7.97067 59.1077 7.23467 59.6517 6.712C60.1957 6.18933 60.937 5.928 61.8757 5.928C62.8997 5.928 63.673 6.2 64.1957 6.744C64.7184 7.288 65.033 8.13067 65.1397 9.272L63.6037 9.688C63.5504 8.93067 63.401 8.34933 63.1557 7.944C62.921 7.528 62.4944 7.32 61.8757 7.32C61.417 7.32 61.065 7.44267 60.8197 7.688C60.5744 7.92267 60.4517 8.27467 60.4517 8.744C60.4517 9.128 60.5157 9.45333 60.6437 9.72C60.7717 9.976 60.9904 10.2373 61.2997 10.504L63.4917 12.424C64.057 12.9253 64.505 13.4693 64.8357 14.056C65.177 14.6427 65.3477 15.3093 65.3477 16.056C65.3477 17.0053 65.0597 17.7573 64.4837 18.312C63.9077 18.8667 63.161 19.144 62.2437 19.144ZM66.7502 6.04H68.5582V17.704H71.8702V19H66.7502V6.04ZM73.2056 6.04H74.9816V19H73.2056V6.04ZM77.2863 6.04H79.0623L81.3503 16.552L83.6543 6.04H85.4143L85.6543 19H84.1983L84.0543 9.592L81.8623 19H80.8383L78.6623 9.592L78.5183 19H77.0463L77.2863 6.04Z" fill="black"/>
<line x1="102" y1="12" x2="120" y2="12" stroke="black" stroke-width="2"/>
<path d="M126 12L119.25 17.1962V6.80385L126 12Z" fill="black"/>
</svg>
